<?xml version="1.0" encoding="UTF-8"?>
<svg version="1.1" viewBox="0 0 908 1188" width="1280" height="1280" xmlns="http://www.w3.org/2000/svg">
<path transform="translate(0)" d="m0 0h908v1188h-908z" fill="none"/>
<path transform="translate(82,39)" d="m0 0h201l1 1v346l1 48 2 36 4 25 5 19 7 20 11 21 9 13 9 11 9 10 15 13 18 12 15 8 21 8 28 7 26 3 22-1 25-4 22-6 15-6 21-11 14-10 11-9 13-13 9-11 7-10 9-15 10-24 6-20 4-22 1-7 1-21 1-411h204v438l-2 33-3 23-6 31-7 25-7 20-11 27-12 23-12 19-13 19-11 13-9 11-28 28-14 11-13 10-23 15-16 9-17 9-25 11-28 10-33 9-24 5-29 4-23 2h-42l-26-2-35-5-24-5-31-9-25-9-15-6-16-8-17-9-13-8-18-12-12-9-11-9-10-9-8-7-15-15-9-11-8-9-9-12-14-21-9-16-10-19-11-27-7-20-9-36-5-30-3-38v-443z" fill="#185AFB"/>
<path transform="translate(115,953)" d="m0 0h710l1 201-1 2h-83l-628-1v-198z" fill="#185AFB"/>
</svg>
